<svg version="1.1" id="Layer_1" xmlns="http://www.w3.org/2000/svg" xmlns:xlink="http://www.w3.org/1999/xlink" x="0px" y="0px"
	 width="100%" viewBox="0 0 792 243" enable-background="new 0 0 792 243" xml:space="preserve">
<path fill="#FFFFFF" opacity="1.000000" stroke="none" 
	d="
M793.000000,47.999992 
	C793.000000,113.301170 793.000000,178.602341 793.000000,244.000000 
	C562.312439,244.000000 331.624878,244.000000 100.593201,243.624146 
	C106.898636,242.097565 113.514000,240.298508 117.625465,234.650085 
	C126.233070,222.824738 122.646866,205.006470 104.652184,200.913742 
	C96.882248,199.146545 89.197090,196.801193 81.710602,194.068649 
	C77.077110,192.377472 74.203613,185.964813 75.071609,181.685501 
	C76.423347,175.021301 80.397324,170.823257 87.040207,169.489960 
	C93.148552,168.263962 99.280479,168.323013 103.773628,173.424362 
	C106.285522,176.276276 107.619820,180.166428 110.135849,183.013290 
	C111.777359,184.870636 114.571487,186.594177 116.881294,186.636658 
	C118.218491,186.661224 121.104988,182.794281 120.705841,181.443527 
	C119.615295,177.753036 117.898560,173.605789 115.096420,171.179291 
	C105.434967,162.812973 93.774460,162.610123 81.960159,165.020996 
	C69.807457,167.500916 63.996288,175.974380 64.179695,186.057892 
	C64.354370,195.661301 68.177887,203.080719 81.487473,206.100098 
	C89.247696,207.860596 96.941200,210.185028 104.377281,213.011856 
	C109.537224,214.973373 111.659813,221.947006 110.380310,227.238632 
	C108.368965,235.556900 101.855827,238.183578 94.859978,238.748016 
	C88.183853,239.286682 81.591400,237.117844 77.166153,231.400284 
	C74.925285,228.505005 73.683182,224.802628 71.300751,222.064407 
	C69.976120,220.541962 67.086151,219.379898 65.184967,219.706177 
	C63.876450,219.930725 61.895420,223.246887 62.226997,224.732071 
	C63.316719,229.613068 65.122261,234.585678 70.101067,236.943024 
	C75.612297,239.552475 81.356979,241.668884 87.000000,244.000000 
	C58.351276,244.000000 29.702555,244.000000 1.026917,244.000000 
	C1.026917,163.068649 1.026917,82.137299 1.026917,1.000000 
	C124.020821,1.000000 247.041748,1.000000 370.367859,1.406108 
	C358.191040,3.214216 345.519958,3.695957 333.267303,6.213953 
	C309.362061,11.126630 286.169312,18.727270 263.537262,27.899626 
	C248.692596,33.915890 233.886734,40.039661 219.201538,46.432400 
	C212.236694,49.464329 205.594803,53.238178 198.806610,56.675915 
	C199.016632,57.275311 199.226639,57.874710 199.436661,58.474110 
	C211.344910,55.114182 223.347855,52.054569 235.142853,48.335472 
	C265.106537,38.887558 294.019348,25.864679 325.552155,21.797697 
	C338.960968,20.068281 352.368683,17.772341 365.837921,17.218361 
	C380.879150,16.599730 395.995819,17.504883 411.067535,18.069435 
	C418.412598,18.344566 425.846375,18.753473 433.037750,20.146132 
	C451.860901,23.791386 470.554840,28.098606 489.340759,31.944506 
	C494.417206,32.983768 499.633362,33.785564 504.793488,33.834240 
	C509.117584,33.875027 513.461304,32.706615 517.782593,31.990452 
	C527.107422,30.445028 536.423523,28.846188 545.743164,27.269197 
	C544.526733,25.864708 543.362976,25.379898 542.167542,24.993359 
	C520.868652,18.106512 499.182343,12.899944 477.150818,8.842891 
	C458.518066,5.411709 439.868805,2.682596 420.934662,1.958215 
	C420.278534,1.933114 419.644379,1.332420 419.000000,1.000003 
	C543.666687,1.000000 668.333374,1.000000 793.000000,1.000000 
	C793.000000,15.759995 793.000000,30.411339 792.739014,45.536350 
	C792.311096,46.059685 792.144287,46.109352 791.556763,46.091156 
	C777.097717,48.069130 763.171875,50.055557 748.784607,49.256794 
	C733.987549,48.435280 719.577393,45.919125 705.308899,42.557579 
	C681.335693,36.909679 657.948181,28.521093 633.113708,27.019201 
	C621.547546,26.319727 609.848755,25.303638 598.370850,26.293831 
	C584.149353,27.520702 570.076294,30.575211 555.973145,33.035126 
	C542.693420,35.351414 529.470703,37.993465 516.199280,40.359669 
	C501.476746,42.984596 486.756226,45.644764 471.980896,47.942852 
	C459.406342,49.898632 446.761597,51.411556 434.136414,53.030842 
	C418.258667,55.067291 402.390839,57.212246 386.477905,58.932587 
	C374.233978,60.256271 361.936981,61.148281 349.645325,61.954308 
	C336.638428,62.807236 323.616852,63.581722 310.589325,63.941029 
	C290.506012,64.494934 270.412750,64.710938 250.322479,64.978989 
	C241.304001,65.099312 232.281403,65.092934 223.262711,64.979843 
	C201.336563,64.704895 179.585602,66.625076 158.151566,71.097939 
	C142.320541,74.401558 126.457527,77.916245 111.031044,82.698936 
	C92.925934,88.312096 75.692001,96.289474 59.422100,106.181747 
	C40.463470,117.708801 23.785799,131.899841 9.634616,148.979767 
	C6.839798,152.353012 4.803879,156.354996 2.417979,160.067032 
	C2.701320,160.261398 2.984662,160.455780 3.268003,160.650146 
	C3.840531,160.378281 4.413060,160.106415 5.340971,159.901672 
	C19.513882,151.330658 33.331413,142.692520 47.363247,134.026398 
	C47.577553,133.998428 47.984200,133.851868 48.301342,133.849762 
	C49.434612,133.269897 50.250740,132.692139 51.418968,132.063782 
	C53.205181,131.283844 54.639305,130.554504 56.326164,129.841843 
	C56.755836,129.579681 56.932766,129.300827 57.057816,129.019928 
	C57.005939,129.017883 57.007225,129.121719 57.372704,129.070084 
	C59.188080,128.361816 60.637970,127.705193 62.056011,127.056870 
	C62.024158,127.065186 62.052826,127.124626 62.431137,127.065109 
	C71.743668,123.707230 80.491333,119.709587 89.653412,117.265305 
	C105.607002,113.009178 121.687378,108.931976 137.956406,106.242233 
	C152.644073,103.813942 167.632767,102.748550 182.530457,102.184441 
	C195.922363,101.677361 209.381271,102.443192 222.792038,103.055023 
	C239.579681,103.820915 256.358093,104.866264 273.120972,106.064316 
	C281.269501,106.646706 289.364532,107.942612 297.500397,108.747490 
	C305.650696,109.553780 313.821655,110.150795 322.320618,110.909706 
	C323.111938,110.933342 323.566162,110.886795 324.287537,110.960381 
	C325.038544,111.333878 325.522430,111.587234 326.255432,111.899963 
	C326.670074,111.917374 326.835571,111.875412 327.420563,111.903885 
	C333.894318,112.927330 339.948517,113.880356 346.361633,115.017174 
	C351.481415,116.078316 356.242310,116.955658 361.401764,117.914368 
	C366.201263,118.941566 370.602234,119.887405 375.415405,120.904739 
	C380.183746,121.668030 384.539856,122.359825 389.109650,123.399689 
	C394.534729,124.536568 399.746124,125.325378 405.175537,126.458359 
	C410.596710,127.479332 415.799927,128.156128 421.363312,129.015900 
	C428.150269,130.410431 434.577057,131.621994 441.409363,132.914856 
	C447.861694,134.035034 453.908508,135.073914 460.166260,136.456696 
	C465.248535,137.581497 470.119843,138.362366 474.801208,139.505264 
	C463.617157,142.751633 452.964844,140.361008 442.219635,138.074509 
	C432.734100,136.056046 423.122772,134.620102 413.553955,133.004089 
	C403.331451,131.277710 393.092072,129.651398 382.862976,127.963730 
	C370.875763,125.985992 358.927429,123.729988 346.896301,122.073265 
	C334.779480,120.404732 322.584686,119.296608 310.418793,117.991699 
	C294.668060,116.302277 278.928894,114.473396 263.152710,113.063026 
	C252.011719,112.067024 240.813522,111.052376 229.647781,111.123894 
	C203.809418,111.289406 177.949448,109.843147 152.132462,112.864334 
	C136.327072,114.713936 120.866837,117.748795 105.796112,122.692841 
	C85.928162,129.210663 67.572227,138.729095 51.005783,151.545807 
	C48.055946,153.827957 45.462379,156.570618 42.704308,159.100647 
	C48.524380,157.920868 53.630890,155.771423 58.869789,154.017380 
	C80.461510,146.788284 102.889130,143.640762 125.376640,141.102539 
	C139.069962,139.556931 152.863129,138.766434 166.633377,138.069702 
	C179.535110,137.416931 192.464828,137.124557 205.383865,137.072372 
	C214.467331,137.035675 223.552109,137.711716 232.638718,137.991745 
	C255.140671,138.685226 277.644409,139.321030 300.146606,140.006989 
	C309.899200,140.304276 319.651947,140.616104 329.400421,141.021790 
	C334.823547,141.247467 340.245514,141.589920 345.655090,142.035995 
	C361.165344,143.314941 376.666595,144.702164 392.176147,145.989838 
	C401.006104,146.722961 409.876007,147.074738 418.673553,148.075882 
	C434.306030,149.854843 449.906891,151.924698 465.503632,154.002823 
	C494.383942,157.850906 523.044189,162.719757 550.534546,172.865112 
	C552.061829,173.428726 553.842651,174.154266 555.319031,173.862122 
	C562.407043,172.459549 569.422058,170.691956 576.487122,169.165604 
	C577.530396,168.940201 579.046143,168.897278 579.752319,169.482727 
	C582.089050,171.420105 583.977966,173.908386 586.354797,175.784866 
	C599.384033,186.071121 614.043335,189.189468 630.184143,185.360657 
	C643.148926,182.285248 652.831482,174.589905 660.754211,163.622726 
	C669.002930,160.912613 676.942688,158.696320 684.692505,155.944870 
	C702.755798,149.531769 719.399231,140.341476 733.705444,127.616623 
	C749.090820,113.931969 762.858521,98.603004 773.897949,81.130760 
	C780.701538,70.362785 786.661377,59.061726 793.000000,47.999992 
M322.962891,234.685074 
	C323.910980,237.954254 323.783325,242.550949 328.203308,242.631912 
	C329.764099,242.660507 331.988831,238.836563 332.906464,236.394318 
	C339.536957,218.746841 345.909943,201.002655 352.547363,182.787323 
	C353.116943,185.379517 353.622192,187.376190 353.988770,189.398010 
	C355.920532,200.052460 358.484650,210.651657 359.476501,221.394928 
	C360.073700,227.863800 366.294403,235.226868 356.810913,241.478592 
	C359.144806,242.206573 360.404755,242.893951 361.690063,242.945160 
	C365.515167,243.097519 369.357788,243.135223 373.177246,242.923828 
	C374.452789,242.853226 376.008606,242.166306 376.782288,241.224091 
	C377.142059,240.785858 375.985443,239.042313 375.435883,237.930191 
	C374.320007,235.672165 372.571411,233.556900 372.095306,231.180145 
	C368.988098,215.667343 365.881439,200.143845 363.365326,184.528656 
	C362.414185,178.625854 358.910767,172.073776 364.948944,166.592926 
	C365.135895,166.423248 364.812927,165.691833 364.687317,165.000046 
	C361.502655,165.000046 358.272034,164.589874 355.221405,165.153625 
	C353.386353,165.492737 350.904694,166.996902 350.302643,168.581299 
	C346.608002,178.304337 343.405151,188.213135 339.964081,198.033981 
	C336.603546,207.625076 333.154022,217.184967 329.443024,227.602142 
	C323.426422,209.903107 317.770142,193.059311 311.969879,176.265244 
	C307.214386,162.496063 309.213379,165.257980 296.089935,165.040436 
	C295.781738,165.035324 295.469879,165.252670 295.127716,165.378006 
	C295.127716,166.358246 294.716034,167.888367 295.192810,168.251282 
	C299.018860,171.163620 297.720520,174.692673 297.069122,178.468964 
	C294.206512,195.063705 291.806396,211.741089 288.728516,228.293671 
	C288.029083,232.055130 285.277130,235.429443 283.503296,238.998520 
	C282.274109,241.471695 283.266327,242.867188 285.836639,242.959091 
	C289.812408,243.101257 293.797058,242.996567 298.949585,242.996567 
	C297.699036,240.678726 296.798706,239.122192 296.010376,237.510880 
	C295.448578,236.362625 294.471466,235.051010 294.643555,233.965012 
	C297.372375,216.742661 300.257202,199.545013 303.297302,181.188370 
	C309.960968,199.503922 316.238251,216.757523 322.962891,234.685074 
M165.500290,206.000000 
	C172.599091,206.000000 179.697891,206.000000 187.000000,206.000000 
	C187.000000,213.051010 187.035904,219.528442 186.988937,226.005280 
	C186.949417,231.454163 188.477890,237.319717 182.594330,241.097382 
	C186.800659,243.879913 200.038742,243.637695 203.522705,240.563141 
	C196.394775,237.250824 198.028351,230.882736 198.012543,225.064301 
	C197.974060,210.900238 197.980087,196.735962 198.009949,182.571854 
	C198.021652,177.020493 196.790344,171.090805 202.376709,167.077087 
	C202.604721,166.913254 202.514099,166.305954 202.631210,165.494659 
	C196.052643,165.494659 189.789841,165.494659 182.947998,165.494659 
	C190.521210,176.748886 185.342499,188.541000 187.228180,199.699554 
	C172.996185,199.699554 159.591385,199.699554 146.000000,199.699554 
	C146.000000,192.420059 146.048157,185.438965 145.981339,178.458969 
	C145.943298,174.485977 145.400909,170.452652 149.544678,167.832474 
	C150.011765,167.537094 149.772537,166.124725 149.863953,165.198929 
	C143.430786,165.198929 137.319885,165.198929 130.322327,165.198929 
	C131.331268,166.903763 132.116028,168.022049 132.685547,169.240891 
	C133.536560,171.062195 134.884079,172.948792 134.899994,174.817154 
	C135.063187,193.979050 135.083755,213.143753 134.877121,232.304810 
	C134.855225,234.336517 133.107178,236.339508 132.205948,238.376190 
	C131.766998,239.368225 130.916122,240.596802 131.199600,241.371414 
	C131.480927,242.140182 132.936707,242.889023 133.904938,242.925980 
	C138.231216,243.091095 142.572952,243.117538 146.895859,242.913528 
	C147.944824,242.864014 149.322891,241.957016 149.823273,241.045563 
	C150.124451,240.496948 149.094879,239.134399 148.534470,238.216278 
	C147.755539,236.940094 146.147980,235.753174 146.120499,234.501175 
	C145.913742,225.074646 146.007751,215.641510 146.007751,206.000000 
	C152.546951,206.000000 158.523758,206.000000 165.500290,206.000000 
M394.545471,164.994217 
	C391.412598,164.994217 388.279724,164.994217 384.529694,164.994217 
	C385.157776,166.855743 385.311615,169.085266 386.096832,169.335800 
	C389.733704,170.496109 388.976715,173.281830 388.980713,175.795425 
	C389.006897,192.267319 389.040619,208.739487 388.966125,225.211075 
	C388.943634,230.184311 390.275879,235.554474 385.290070,239.372696 
	C384.706207,239.819824 385.100708,241.544418 385.018188,243.126419 
	C391.499756,242.250458 398.013306,244.452454 405.162872,241.391800 
	C395.441895,234.420181 400.290131,225.354675 398.899475,217.475342 
	C405.754578,216.960510 412.131470,216.668121 418.462036,215.961105 
	C427.298157,214.974319 435.097534,211.605927 439.174133,203.232803 
	C446.998199,187.162521 440.033966,171.242752 422.724823,167.174774 
	C413.972534,165.117828 404.614380,165.638809 394.545471,164.994217 
M246.860992,166.306442 
	C242.661636,165.713577 238.462296,165.120712 233.617737,164.436768 
	C234.099228,166.430435 234.027878,167.572693 234.506775,167.893463 
	C238.851578,170.803619 237.269455,174.055206 235.718842,177.845673 
	C230.627167,190.292297 226.207108,203.020752 220.887497,215.364456 
	C217.436081,223.373154 216.568100,232.672592 209.602142,239.074997 
	C208.880310,239.738419 209.109146,241.436203 208.864441,242.840210 
	C214.108063,242.840210 218.903687,242.840210 223.792236,242.840210 
	C222.999237,239.435043 221.389816,236.112411 221.716309,232.992371 
	C222.100357,229.322296 224.163620,225.827942 225.594940,222.000000 
	C232.764145,222.000000 240.152420,222.636597 247.382172,221.838043 
	C256.314789,220.851395 262.161530,222.946228 264.118011,232.588913 
	C264.673187,235.325165 265.196350,237.165436 262.582672,238.857132 
	C261.847260,239.333145 260.939423,240.857605 261.178741,241.250504 
	C261.674133,242.063721 262.872894,242.892593 263.806519,242.920959 
	C268.966370,243.077698 274.136169,243.080505 279.295929,242.921997 
	C280.301544,242.891113 281.278076,241.914978 282.208771,241.407181 
	C279.894409,238.381897 277.445435,236.180115 276.235504,233.432648 
	C269.653198,218.485611 263.419983,203.385330 256.975464,188.376938 
	C253.886887,181.184021 250.597275,174.077454 246.860992,166.306442 
M473.989532,221.542877 
	C473.989532,224.538635 474.066406,227.536896 473.968262,230.529434 
	C473.866882,233.620239 475.213776,237.283188 470.779327,238.844864 
	C470.285858,239.018631 469.805054,240.913788 470.160431,241.423248 
	C470.713684,242.216446 471.977966,242.914093 472.960297,242.940811 
	C478.249573,243.084671 483.544891,243.008881 490.043304,243.008881 
	C488.713928,240.606323 487.849457,239.009628 486.951141,237.432220 
	C486.329742,236.341049 485.046722,235.239136 485.109558,234.205917 
	C485.725067,224.085526 482.592255,213.537033 489.172760,204.096420 
	C497.562195,192.060669 502.763153,177.884796 513.660767,167.503922 
	C513.999878,167.180908 513.806335,166.298660 513.887146,165.382538 
	C508.802094,165.382538 503.994446,165.382538 498.694702,165.382538 
	C499.185577,166.596085 499.284271,167.715393 499.784698,167.940048 
	C504.142822,169.896698 502.833679,172.445755 500.925385,175.415939 
	C497.785950,180.302307 494.912445,185.358643 491.863678,190.304382 
	C488.591309,195.612869 485.246033,200.876434 481.470703,206.896042 
	C475.412659,197.051498 469.741241,188.092697 464.356049,178.965027 
	C462.000275,174.972107 456.568939,170.811920 463.667969,165.681793 
	C456.893982,165.681793 450.119965,165.681793 442.341003,165.681793 
	C445.463562,169.047089 448.143524,171.293808 450.023499,174.080276 
	C455.965485,182.887314 461.866058,191.743668 467.274902,200.881500 
	C470.828705,206.885376 475.849640,212.621811 473.989532,221.542877 
z"/>
<path fill="#FE5812" opacity="1.000000" stroke="none" 
	d="
M793.000000,47.666664 
	C786.661377,59.061726 780.701538,70.362785 773.897949,81.130760 
	C762.858521,98.603004 749.090820,113.931969 733.705444,127.616623 
	C719.399231,140.341476 702.755798,149.531769 684.692505,155.944870 
	C676.942688,158.696320 669.002930,160.912613 660.836304,163.154022 
	C661.806152,160.141541 663.089233,157.347122 664.656982,153.932541 
	C660.881653,154.397247 657.954895,154.757492 655.026489,154.709305 
	C657.352600,145.689819 659.654480,137.071655 662.014099,128.469299 
	C665.990173,113.973396 670.002747,99.487503 674.400696,84.944763 
	C681.000671,83.930634 687.200439,82.972672 693.399048,82.007004 
	C716.685120,78.379341 739.828003,74.043129 761.680847,64.865814 
	C772.690979,60.241985 783.582336,55.147438 791.977539,46.159016 
	C792.144287,46.109352 792.311096,46.059685 792.739014,46.005009 
	C793.000000,46.444447 793.000000,46.888889 793.000000,47.666664 
z"/>
<path fill="#000000" opacity="1.000000" stroke="none" 
	d="
M418.531342,1.000003 
	C419.644379,1.332420 420.278534,1.933114 420.934662,1.958215 
	C439.868805,2.682596 458.518066,5.411709 477.150818,8.842891 
	C499.182343,12.899944 520.868652,18.106512 542.167542,24.993359 
	C543.362976,25.379898 544.526733,25.864708 545.743164,27.269197 
	C536.423523,28.846188 527.107422,30.445028 517.782593,31.990452 
	C513.461304,32.706615 509.117584,33.875027 504.793488,33.834240 
	C499.633362,33.785564 494.417206,32.983768 489.340759,31.944506 
	C470.554840,28.098606 451.860901,23.791386 433.037750,20.146132 
	C425.846375,18.753473 418.412598,18.344566 411.067535,18.069435 
	C395.995819,17.504883 380.879150,16.599730 365.837921,17.218361 
	C352.368683,17.772341 338.960968,20.068281 325.552155,21.797697 
	C294.019348,25.864679 265.106537,38.887558 235.142853,48.335472 
	C223.347855,52.054569 211.344910,55.114182 199.436661,58.474110 
	C199.226639,57.874710 199.016632,57.275311 198.806610,56.675915 
	C205.594803,53.238178 212.236694,49.464329 219.201538,46.432400 
	C233.886734,40.039661 248.692596,33.915890 263.537262,27.899626 
	C286.169312,18.727270 309.362061,11.126630 333.267303,6.213953 
	C345.519958,3.695957 358.191040,3.214216 370.836517,1.406108 
	C386.687561,1.000000 402.375122,1.000000 418.531342,1.000003 
z"/>
<path fill="#000000" opacity="1.000000" stroke="none" 
	d="
M87.463181,244.000000 
	C81.356979,241.668884 75.612297,239.552475 70.101067,236.943024 
	C65.122261,234.585678 63.316719,229.613068 62.226997,224.732071 
	C61.895420,223.246887 63.876450,219.930725 65.184967,219.706177 
	C67.086151,219.379898 69.976120,220.541962 71.300751,222.064407 
	C73.683182,224.802628 74.925285,228.505005 77.166153,231.400284 
	C81.591400,237.117844 88.183853,239.286682 94.859978,238.748016 
	C101.855827,238.183578 108.368965,235.556900 110.380310,227.238632 
	C111.659813,221.947006 109.537224,214.973373 104.377281,213.011856 
	C96.941200,210.185028 89.247696,207.860596 81.487473,206.100098 
	C68.177887,203.080719 64.354370,195.661301 64.179695,186.057892 
	C63.996288,175.974380 69.807457,167.500916 81.960159,165.020996 
	C93.774460,162.610123 105.434967,162.812973 115.096420,171.179291 
	C117.898560,173.605789 119.615295,177.753036 120.705841,181.443527 
	C121.104988,182.794281 118.218491,186.661224 116.881294,186.636658 
	C114.571487,186.594177 111.777359,184.870636 110.135849,183.013290 
	C107.619820,180.166428 106.285522,176.276276 103.773628,173.424362 
	C99.280479,168.323013 93.148552,168.263962 87.040207,169.489960 
	C80.397324,170.823257 76.423347,175.021301 75.071609,181.685501 
	C74.203613,185.964813 77.077110,192.377472 81.710602,194.068649 
	C89.197090,196.801193 96.882248,199.146545 104.652184,200.913742 
	C122.646866,205.006470 126.233070,222.824738 117.625465,234.650085 
	C113.514000,240.298508 106.898636,242.097565 100.124542,243.624146 
	C95.975456,244.000000 91.950912,244.000000 87.463181,244.000000 
z"/>
<path fill="#010000" opacity="1.000000" stroke="none" 
	d="
M655.028198,155.117737 
	C657.954895,154.757492 660.881653,154.397247 664.656982,153.932541 
	C663.089233,157.347122 661.806152,160.141541 660.441040,163.404663 
	C652.831482,174.589905 643.148926,182.285248 630.184143,185.360657 
	C614.043335,189.189468 599.384033,186.071121 586.354797,175.784866 
	C583.977966,173.908386 582.089050,171.420105 579.752319,169.482727 
	C579.046143,168.897278 577.530396,168.940201 576.487122,169.165604 
	C569.422058,170.691956 562.407043,172.459549 555.319031,173.862122 
	C553.842651,174.154266 552.061829,173.428726 550.534546,172.865112 
	C523.044189,162.719757 494.383942,157.850906 465.503632,154.002823 
	C449.906891,151.924698 434.306030,149.854843 418.673553,148.075882 
	C409.876007,147.074738 401.006104,146.722961 392.176147,145.989838 
	C376.666595,144.702164 361.165344,143.314941 345.655090,142.035995 
	C340.245514,141.589920 334.823547,141.247467 329.400421,141.021790 
	C319.651947,140.616104 309.899200,140.304276 300.146606,140.006989 
	C277.644409,139.321030 255.140671,138.685226 232.638718,137.991745 
	C223.552109,137.711716 214.467331,137.035675 205.383865,137.072372 
	C192.464828,137.124557 179.535110,137.416931 166.633377,138.069702 
	C152.863129,138.766434 139.069962,139.556931 125.376640,141.102539 
	C102.889130,143.640762 80.461510,146.788284 58.869789,154.017380 
	C53.630890,155.771423 48.524380,157.920868 42.704308,159.100647 
	C45.462379,156.570618 48.055946,153.827957 51.005783,151.545807 
	C67.572227,138.729095 85.928162,129.210663 105.796112,122.692841 
	C120.866837,117.748795 136.327072,114.713936 152.132462,112.864334 
	C177.949448,109.843147 203.809418,111.289406 229.647781,111.123894 
	C240.813522,111.052376 252.011719,112.067024 263.152710,113.063026 
	C278.928894,114.473396 294.668060,116.302277 310.418793,117.991699 
	C322.584686,119.296608 334.779480,120.404732 346.896301,122.073265 
	C358.927429,123.729988 370.875763,125.985992 382.862976,127.963730 
	C393.092072,129.651398 403.331451,131.277710 413.553955,133.004089 
	C423.122772,134.620102 432.734100,136.056046 442.219635,138.074509 
	C452.964844,140.361008 463.617157,142.751633 475.133545,139.444916 
	C476.102478,138.971130 476.549072,138.919724 477.413818,138.941391 
	C483.929779,137.851456 490.027588,136.688446 496.549896,135.486465 
	C503.312775,134.211838 509.651154,132.976181 516.381226,131.749542 
	C526.185303,129.802032 535.597656,127.845512 545.415710,125.914864 
	C550.219482,124.988914 554.617554,124.037086 559.425842,123.106049 
	C561.783447,122.777290 563.815491,122.665665 565.654480,122.011543 
	C567.509583,121.351685 570.214233,120.551346 570.757996,119.128868 
	C575.600037,106.460808 584.523376,97.633057 596.391113,90.996704 
	C604.774475,87.409454 613.210205,86.147675 622.229126,86.483307 
	C626.375916,87.424393 630.198242,88.158340 634.328979,89.072983 
	C637.621460,90.576736 640.605469,91.899788 643.802612,93.496140 
	C647.486023,96.516739 650.956421,99.264046 655.186707,102.612991 
	C648.167297,104.157593 642.557190,105.392082 636.518433,106.630463 
	C628.396851,108.155952 620.703918,109.677544 612.626953,111.165451 
	C607.992493,111.231155 605.934265,113.462646 604.841980,117.564194 
	C603.395020,122.997688 601.613708,128.411346 599.294495,133.524384 
	C596.856934,138.898544 597.696899,142.929459 602.609863,146.570801 
	C606.121094,150.724365 609.800293,154.339142 612.707031,158.494278 
	C615.554932,162.565308 618.734924,163.540665 623.515503,161.558807 
	C634.305908,159.396378 644.667053,157.257065 655.028198,155.117737 
z"/>
<path fill="#E83C0B" opacity="1.000000" stroke="none" 
	d="
M634.020508,88.892288 
	C630.198242,88.158340 626.375916,87.424393 622.280884,86.107880 
	C622.463501,84.465393 622.792725,83.327393 623.393188,82.357292 
	C632.256836,68.038025 641.148315,53.735893 650.052551,39.441776 
	C652.900391,34.870007 652.635071,33.302414 647.438721,32.102638 
	C641.059875,30.629875 634.486694,29.998608 627.529175,29.002880 
	C619.372253,29.004204 611.683655,29.006207 603.550720,29.006165 
	C594.068420,30.326918 585.030579,31.649717 575.557617,32.980072 
	C566.741821,34.636604 558.361145,36.285576 549.546631,37.950340 
	C540.069885,39.625652 531.027100,41.285172 521.552124,42.959183 
	C512.073975,44.628128 503.027863,46.282585 493.546570,47.950035 
	C484.407562,49.308178 475.703796,50.653324 466.563354,51.996651 
	C457.742188,53.298389 449.357605,54.601948 440.522369,55.922852 
	C431.714874,56.958061 423.358032,57.975925 414.566498,58.985886 
	C406.750732,59.692898 399.369690,60.407814 391.563416,61.097698 
	C382.104218,61.838272 373.070282,62.603882 363.630066,63.324814 
	C359.495026,63.584000 355.766296,63.887871 351.614075,64.141434 
	C347.463806,64.415604 343.737000,64.740089 339.581635,65.044403 
	C336.102081,65.348503 333.051025,65.672768 329.555969,65.991379 
	C326.742920,66.004387 324.373840,66.023033 321.560120,66.028030 
	C317.743256,66.338646 314.371002,66.662926 310.540833,66.983078 
	C306.722076,66.989609 303.361328,67.000267 299.542450,67.004845 
	C295.722076,67.009285 292.359833,67.019814 288.537109,67.021729 
	C284.381012,67.030762 280.685425,67.048401 276.523163,67.050728 
	C270.713379,67.044319 265.370239,67.053223 259.587311,67.041206 
	C257.102264,67.020729 255.057022,67.021179 252.561127,67.014839 
	C249.407501,67.008362 246.704514,67.008682 243.543335,67.006638 
	C239.722336,67.006462 236.359528,67.008652 232.538757,67.008667 
	C228.716980,67.017387 225.353134,67.028267 221.562439,67.033249 
	C216.088669,67.359322 211.041733,67.691284 205.556000,68.017868 
	C196.889420,68.712852 188.525940,68.705910 180.460709,70.253326 
	C160.542007,74.074989 140.525742,77.745193 120.974365,83.046257 
	C85.929779,92.548096 54.532421,109.324097 27.634010,133.987503 
	C24.402946,136.950104 21.839647,140.640976 18.670368,144.145523 
	C13.911124,149.476013 9.448355,154.655273 4.985587,159.834549 
	C4.413060,160.106415 3.840531,160.378281 3.268003,160.650146 
	C2.984662,160.455780 2.701320,160.261398 2.417979,160.067032 
	C4.803879,156.354996 6.839798,152.353012 9.634616,148.979767 
	C23.785799,131.899841 40.463470,117.708801 59.422100,106.181747 
	C75.692001,96.289474 92.925934,88.312096 111.031044,82.698936 
	C126.457527,77.916245 142.320541,74.401558 158.151566,71.097939 
	C179.585602,66.625076 201.336563,64.704895 223.262711,64.979843 
	C232.281403,65.092934 241.304001,65.099312 250.322479,64.978989 
	C270.412750,64.710938 290.506012,64.494934 310.589325,63.941029 
	C323.616852,63.581722 336.638428,62.807236 349.645325,61.954308 
	C361.936981,61.148281 374.233978,60.256271 386.477905,58.932587 
	C402.390839,57.212246 418.258667,55.067291 434.136414,53.030842 
	C446.761597,51.411556 459.406342,49.898632 471.980896,47.942852 
	C486.756226,45.644764 501.476746,42.984596 516.199280,40.359669 
	C529.470703,37.993465 542.693420,35.351414 555.973145,33.035126 
	C570.076294,30.575211 584.149353,27.520702 598.370850,26.293831 
	C609.848755,25.303638 621.547546,26.319727 633.113708,27.019201 
	C657.948181,28.521093 681.335693,36.909679 705.308899,42.557579 
	C719.577393,45.919125 733.987549,48.435280 748.784607,49.256794 
	C763.171875,50.055557 777.097717,48.069130 791.556763,46.091156 
	C783.582336,55.147438 772.690979,60.241985 761.680847,64.865814 
	C739.828003,74.043129 716.685120,78.379341 693.399048,82.007004 
	C687.200439,82.972672 681.000671,83.930634 673.951233,84.943329 
	C664.401978,85.669380 655.702942,86.344238 646.574585,87.012665 
	C642.103760,87.634918 638.062134,88.263603 634.020508,88.892288 
z"/>
<path fill="#000000" opacity="1.000000" stroke="none" 
	d="
M322.739197,234.348083 
	C316.238251,216.757523 309.960968,199.503922 303.297302,181.188370 
	C300.257202,199.545013 297.372375,216.742661 294.643555,233.965012 
	C294.471466,235.051010 295.448578,236.362625 296.010376,237.510880 
	C296.798706,239.122192 297.699036,240.678726 298.949585,242.996567 
	C293.797058,242.996567 289.812408,243.101257 285.836639,242.959091 
	C283.266327,242.867188 282.274109,241.471695 283.503296,238.998520 
	C285.277130,235.429443 288.029083,232.055130 288.728516,228.293671 
	C291.806396,211.741089 294.206512,195.063705 297.069122,178.468964 
	C297.720520,174.692673 299.018860,171.163620 295.192810,168.251282 
	C294.716034,167.888367 295.127716,166.358246 295.127716,165.378006 
	C295.469879,165.252670 295.781738,165.035324 296.089935,165.040436 
	C309.213379,165.257980 307.214386,162.496063 311.969879,176.265244 
	C317.770142,193.059311 323.426422,209.903107 329.443024,227.602142 
	C333.154022,217.184967 336.603546,207.625076 339.964081,198.033981 
	C343.405151,188.213135 346.608002,178.304337 350.302643,168.581299 
	C350.904694,166.996902 353.386353,165.492737 355.221405,165.153625 
	C358.272034,164.589874 361.502655,165.000046 364.687317,165.000046 
	C364.812927,165.691833 365.135895,166.423248 364.948944,166.592926 
	C358.910767,172.073776 362.414185,178.625854 363.365326,184.528656 
	C365.881439,200.143845 368.988098,215.667343 372.095306,231.180145 
	C372.571411,233.556900 374.320007,235.672165 375.435883,237.930191 
	C375.985443,239.042313 377.142059,240.785858 376.782288,241.224091 
	C376.008606,242.166306 374.452789,242.853226 373.177246,242.923828 
	C369.357788,243.135223 365.515167,243.097519 361.690063,242.945160 
	C360.404755,242.893951 359.144806,242.206573 356.810913,241.478592 
	C366.294403,235.226868 360.073700,227.863800 359.476501,221.394928 
	C358.484650,210.651657 355.920532,200.052460 353.988770,189.398010 
	C353.622192,187.376190 353.116943,185.379517 352.547363,182.787323 
	C345.909943,201.002655 339.536957,218.746841 332.906464,236.394318 
	C331.988831,238.836563 329.764099,242.660507 328.203308,242.631912 
	C323.783325,242.550949 323.910980,237.954254 322.739197,234.348083 
z"/>
<path fill="#000000" opacity="1.000000" stroke="none" 
	d="
M165.000427,206.000000 
	C158.523758,206.000000 152.546951,206.000000 146.007751,206.000000 
	C146.007751,215.641510 145.913742,225.074646 146.120499,234.501175 
	C146.147980,235.753174 147.755539,236.940094 148.534470,238.216278 
	C149.094879,239.134399 150.124451,240.496948 149.823273,241.045563 
	C149.322891,241.957016 147.944824,242.864014 146.895859,242.913528 
	C142.572952,243.117538 138.231216,243.091095 133.904938,242.925980 
	C132.936707,242.889023 131.480927,242.140182 131.199600,241.371414 
	C130.916122,240.596802 131.766998,239.368225 132.205948,238.376190 
	C133.107178,236.339508 134.855225,234.336517 134.877121,232.304810 
	C135.083755,213.143753 135.063187,193.979050 134.899994,174.817154 
	C134.884079,172.948792 133.536560,171.062195 132.685547,169.240891 
	C132.116028,168.022049 131.331268,166.903763 130.322327,165.198929 
	C137.319885,165.198929 143.430786,165.198929 149.863953,165.198929 
	C149.772537,166.124725 150.011765,167.537094 149.544678,167.832474 
	C145.400909,170.452652 145.943298,174.485977 145.981339,178.458969 
	C146.048157,185.438965 146.000000,192.420059 146.000000,199.699554 
	C159.591385,199.699554 172.996185,199.699554 187.228180,199.699554 
	C185.342499,188.541000 190.521210,176.748886 182.947998,165.494659 
	C189.789841,165.494659 196.052643,165.494659 202.631210,165.494659 
	C202.514099,166.305954 202.604721,166.913254 202.376709,167.077087 
	C196.790344,171.090805 198.021652,177.020493 198.009949,182.571854 
	C197.980087,196.735962 197.974060,210.900238 198.012543,225.064301 
	C198.028351,230.882736 196.394775,237.250824 203.522705,240.563141 
	C200.038742,243.637695 186.800659,243.879913 182.594330,241.097382 
	C188.477890,237.319717 186.949417,231.454163 186.988937,226.005280 
	C187.035904,219.528442 187.000000,213.051010 187.000000,206.000000 
	C179.697891,206.000000 172.599091,206.000000 165.000427,206.000000 
z"/>
<path fill="#030303" opacity="1.000000" stroke="none" 
	d="
M395.037811,164.994217 
	C404.614380,165.638809 413.972534,165.117828 422.724823,167.174774 
	C440.033966,171.242752 446.998199,187.162521 439.174133,203.232803 
	C435.097534,211.605927 427.298157,214.974319 418.462036,215.961105 
	C412.131470,216.668121 405.754578,216.960510 398.899475,217.475342 
	C400.290131,225.354675 395.441895,234.420181 405.162872,241.391800 
	C398.013306,244.452454 391.499756,242.250458 385.018188,243.126419 
	C385.100708,241.544418 384.706207,239.819824 385.290070,239.372696 
	C390.275879,235.554474 388.943634,230.184311 388.966125,225.211075 
	C389.040619,208.739487 389.006897,192.267319 388.980713,175.795425 
	C388.976715,173.281830 389.733704,170.496109 386.096832,169.335800 
	C385.311615,169.085266 385.157776,166.855743 384.529694,164.994217 
	C388.279724,164.994217 391.412598,164.994217 395.037811,164.994217 
M399.004059,180.559723 
	C399.004059,188.384750 398.981445,196.209869 399.011383,204.034775 
	C399.034302,210.025070 399.990326,210.984711 405.733948,210.995209 
	C408.064789,210.999481 410.403870,211.123505 412.725128,210.974396 
	C424.525391,210.216461 432.743988,201.836700 431.507141,190.034637 
	C430.250977,178.048233 421.636353,170.023422 408.987946,169.891968 
	C398.007385,169.777847 399.052063,168.402802 399.004059,180.559723 
z"/>
<path fill="#000000" opacity="1.000000" stroke="none" 
	d="
M247.129852,166.619110 
	C250.597275,174.077454 253.886887,181.184021 256.975464,188.376938 
	C263.419983,203.385330 269.653198,218.485611 276.235504,233.432648 
	C277.445435,236.180115 279.894409,238.381897 282.208771,241.407181 
	C281.278076,241.914978 280.301544,242.891113 279.295929,242.921997 
	C274.136169,243.080505 268.966370,243.077698 263.806519,242.920959 
	C262.872894,242.892593 261.674133,242.063721 261.178741,241.250504 
	C260.939423,240.857605 261.847260,239.333145 262.582672,238.857132 
	C265.196350,237.165436 264.673187,235.325165 264.118011,232.588913 
	C262.161530,222.946228 256.314789,220.851395 247.382172,221.838043 
	C240.152420,222.636597 232.764145,222.000000 225.594940,222.000000 
	C224.163620,225.827942 222.100357,229.322296 221.716309,232.992371 
	C221.389816,236.112411 222.999237,239.435043 223.792236,242.840210 
	C218.903687,242.840210 214.108063,242.840210 208.864441,242.840210 
	C209.109146,241.436203 208.880310,239.738419 209.602142,239.074997 
	C216.568100,232.672592 217.436081,223.373154 220.887497,215.364456 
	C226.207108,203.020752 230.627167,190.292297 235.718842,177.845673 
	C237.269455,174.055206 238.851578,170.803619 234.506775,167.893463 
	C234.027878,167.572693 234.099228,166.430435 233.617737,164.436768 
	C238.462296,165.120712 242.661636,165.713577 247.129852,166.619110 
M235.037766,196.662155 
	C232.643585,203.300842 230.249405,209.939529 227.840515,216.619019 
	C237.944901,216.619019 247.425751,216.619019 257.432739,216.619019 
	C252.283890,203.992661 247.347046,191.886154 241.996887,178.766083 
	C239.522461,185.329819 237.511230,190.664902 235.037766,196.662155 
z"/>
<path fill="#FD9501" opacity="1.000000" stroke="none" 
	d="
M327.001038,111.833458 
	C326.835571,111.875412 326.670074,111.917374 326.220703,111.624725 
	C325.298035,111.140160 324.659210,110.990204 324.020416,110.840240 
	C323.566162,110.886795 323.111938,110.933342 322.069153,110.636017 
	C305.690582,107.852295 289.900543,105.412445 273.812317,102.703049 
	C268.008606,101.625595 262.503082,100.817696 257.005646,99.610703 
	C258.017242,94.568756 259.020721,89.925911 260.461670,85.216278 
	C263.264679,85.090660 265.630249,85.031822 268.455811,85.010513 
	C272.613983,85.049408 276.312225,85.050774 280.466980,85.070831 
	C284.276703,85.081306 287.629822,85.073105 291.289612,85.333359 
	C295.052094,85.684998 298.507965,85.768188 302.419281,85.898926 
	C305.911835,85.943069 308.948975,85.939667 312.431213,85.959030 
	C315.249268,85.982719 317.622162,85.983650 320.445374,85.993759 
	C323.598663,86.004738 326.301636,86.006523 329.377167,86.011322 
	C330.494232,86.018929 331.238770,86.023537 331.987610,86.469803 
	C331.489471,90.290474 331.138489,93.700775 330.448822,97.041153 
	C329.425446,101.997910 328.162170,106.905144 327.001038,111.833458 
z"/>
<path fill="#050505" opacity="1.000000" stroke="none" 
	d="
M473.989532,221.054642 
	C475.849640,212.621811 470.828705,206.885376 467.274902,200.881500 
	C461.866058,191.743668 455.965485,182.887314 450.023499,174.080276 
	C448.143524,171.293808 445.463562,169.047089 442.341003,165.681793 
	C450.119965,165.681793 456.893982,165.681793 463.667969,165.681793 
	C456.568939,170.811920 462.000275,174.972107 464.356049,178.965027 
	C469.741241,188.092697 475.412659,197.051498 481.470703,206.896042 
	C485.246033,200.876434 488.591309,195.612869 491.863678,190.304382 
	C494.912445,185.358643 497.785950,180.302307 500.925385,175.415939 
	C502.833679,172.445755 504.142822,169.896698 499.784698,167.940048 
	C499.284271,167.715393 499.185577,166.596085 498.694702,165.382538 
	C503.994446,165.382538 508.802094,165.382538 513.887146,165.382538 
	C513.806335,166.298660 513.999878,167.180908 513.660767,167.503922 
	C502.763153,177.884796 497.562195,192.060669 489.172760,204.096420 
	C482.592255,213.537033 485.725067,224.085526 485.109558,234.205917 
	C485.046722,235.239136 486.329742,236.341049 486.951141,237.432220 
	C487.849457,239.009628 488.713928,240.606323 490.043304,243.008881 
	C483.544891,243.008881 478.249573,243.084671 472.960297,242.940811 
	C471.977966,242.914093 470.713684,242.216446 470.160431,241.423248 
	C469.805054,240.913788 470.285858,239.018631 470.779327,238.844864 
	C475.213776,237.283188 473.866882,233.620239 473.968262,230.529434 
	C474.066406,227.536896 473.989532,224.538635 473.989532,221.054642 
z"/>
<path fill="#CD590A" opacity="1.000000" stroke="none" 
	d="
M459.955322,136.112778 
	C453.908508,135.073914 447.861694,134.035034 441.408295,132.505035 
	C441.214386,130.555695 441.278931,129.057205 441.662872,127.645615 
	C445.077515,115.091919 448.548645,102.553589 452.470703,90.004013 
	C458.624329,89.990921 464.310425,89.984543 470.374390,89.989349 
	C471.508209,90.029503 472.264160,90.058472 472.966187,90.465805 
	C468.593292,105.933693 464.274292,121.023232 459.955322,136.112778 
z"/>
<path fill="#D46308" opacity="1.000000" stroke="none" 
	d="
M452.003113,90.010719 
	C448.548645,102.553589 445.077515,115.091919 441.662872,127.645615 
	C441.278931,129.057205 441.214386,130.555695 441.002747,132.423721 
	C434.577057,131.621994 428.150269,130.410431 421.371033,128.632202 
	C424.682281,115.054260 428.345978,102.042969 432.474670,89.022079 
	C437.627106,89.011452 442.314545,89.010414 447.374573,89.014542 
	C449.165802,89.350037 450.584473,89.680374 452.003113,90.010719 
z"/>
<path fill="#C6510B" opacity="1.000000" stroke="none" 
	d="
M460.166260,136.456696 
	C464.274292,121.023232 468.593292,105.933693 473.430969,90.442642 
	C479.300995,90.346489 484.652374,90.651840 489.996155,91.353943 
	C485.657593,107.456581 481.326630,123.162453 476.995667,138.868317 
	C476.549072,138.919724 476.102478,138.971130 475.323517,139.082886 
	C470.119843,138.362366 465.248535,137.581497 460.166260,136.456696 
z"/>
<path fill="#EA400C" opacity="1.000000" stroke="none" 
	d="
M274.110474,102.972595 
	C289.900543,105.412445 305.690582,107.852295 321.732117,110.565834 
	C313.821655,110.150795 305.650696,109.553780 297.500397,108.747490 
	C289.364532,107.942612 281.269501,106.646706 273.120972,106.064316 
	C256.358093,104.866264 239.579681,103.820915 222.792038,103.055023 
	C209.381271,102.443192 195.922363,101.677361 182.530457,102.184441 
	C167.632767,102.748550 152.644073,103.813942 137.956406,106.242233 
	C121.687378,108.931976 105.607002,113.009178 89.653412,117.265305 
	C80.491333,119.709587 71.743668,123.707230 62.443844,126.695770 
	C66.758644,124.204185 71.314278,121.682610 76.144547,119.908997 
	C87.392738,115.778824 98.773178,112.008827 110.505394,108.069801 
	C126.941254,105.355919 142.971771,102.665138 159.422028,99.976089 
	C161.616928,99.669060 163.384933,99.145416 165.168381,99.086060 
	C177.676468,98.669838 190.188721,98.379417 202.696854,97.964355 
	C204.469040,97.905556 206.226044,97.389168 208.439682,97.089363 
	C214.600891,97.431969 220.312469,97.769775 226.115936,98.488953 
	C229.371994,99.289146 232.524918,99.851135 235.702393,100.101700 
	C248.500961,101.110962 261.307129,102.024002 274.110474,102.972595 
z"/>
<path fill="#F58C02" opacity="1.000000" stroke="none" 
	d="
M327.420563,111.903885 
	C328.162170,106.905144 329.425446,101.997910 330.448822,97.041153 
	C331.138489,93.700775 331.489471,90.290474 332.423706,86.460175 
	C335.109253,85.772408 338.595184,86.369461 339.412506,85.161232 
	C343.977661,78.412773 347.897308,71.227638 352.037537,64.191742 
	C355.766296,63.887871 359.495026,63.584000 363.611359,63.659500 
	C360.863922,69.595085 357.551666,75.062599 354.699615,80.760468 
	C353.820831,82.516167 354.197968,84.900528 353.853455,87.328827 
	C351.138885,96.718208 348.570801,105.775795 346.002747,114.833382 
	C339.948517,113.880356 333.894318,112.927330 327.420563,111.903885 
z"/>
<path fill="#DA6A07" opacity="1.000000" stroke="none" 
	d="
M432.009674,89.031677 
	C428.345978,102.042969 424.682281,115.054260 421.010864,128.449234 
	C415.799927,128.156128 410.596710,127.479332 405.188354,126.044228 
	C405.848663,121.788963 406.729401,118.295715 407.576599,114.794350 
	C409.731537,105.888794 411.871399,96.979599 414.437683,88.053787 
	C417.568329,88.339485 420.278564,88.643272 423.439484,88.961388 
	C426.596649,88.994370 429.303162,89.013023 432.009674,89.031677 
z"/>
<path fill="#E07106" opacity="1.000000" stroke="none" 
	d="
M414.017303,88.071861 
	C411.871399,96.979599 409.731537,105.888794 407.576599,114.794350 
	C406.729401,118.295715 405.848663,121.788963 404.970367,125.700043 
	C399.746124,125.325378 394.534729,124.536568 389.402954,123.163895 
	C392.657654,111.060867 395.832733,99.541695 399.473053,88.016083 
	C404.631287,88.030388 409.324310,88.051125 414.017303,88.071861 
z"/>
<path fill="#F77504" opacity="1.000000" stroke="none" 
	d="
M110.100037,108.092911 
	C98.773178,112.008827 87.392738,115.778824 76.144547,119.908997 
	C71.314278,121.682610 66.758644,124.204185 62.065533,126.755280 
	C62.052826,127.124626 62.024158,127.065186 61.688343,127.021790 
	C59.904095,127.692833 58.455658,128.407272 57.007225,129.121719 
	C57.007225,129.121719 57.005939,129.017883 56.842346,129.094803 
	C56.390472,129.309402 56.188694,129.527206 56.073425,129.825150 
	C54.639305,130.554504 53.205181,131.283844 51.245598,131.848938 
	C49.808159,132.407074 48.896179,133.129471 47.984200,133.851868 
	C47.984200,133.851868 47.577553,133.998428 46.997810,134.000946 
	C45.830383,133.227051 44.623325,132.300308 44.768597,131.701782 
	C45.246269,129.733734 46.214260,127.884697 47.152710,125.685532 
	C58.072861,120.245857 68.615791,114.565269 79.662003,110.141357 
	C89.141708,106.344826 99.196877,103.985176 108.998459,101.412849 
	C109.366257,103.921364 109.733147,106.007133 110.100037,108.092911 
z"/>
<path fill="#E57805" opacity="1.000000" stroke="none" 
	d="
M399.007812,88.022530 
	C395.832733,99.541695 392.657654,111.060867 389.189270,122.815826 
	C384.539856,122.359825 380.183746,121.668030 375.465454,120.536751 
	C378.073578,109.080238 381.043884,98.063217 384.432739,87.044487 
	C389.232330,87.353676 393.613403,87.664574 398.247894,87.985657 
	C398.670135,88.004738 398.838959,88.013634 399.007812,88.022530 
z"/>
<path fill="#EA7E04" opacity="1.000000" stroke="none" 
	d="
M384.014221,87.046188 
	C381.043884,98.063217 378.073578,109.080238 375.053223,120.465256 
	C370.602234,119.887405 366.201263,118.941566 361.453613,117.541527 
	C361.835785,114.553215 362.622742,112.034111 363.282593,109.482140 
	C365.217346,101.999672 367.101532,94.504135 369.458984,87.009705 
	C372.940857,87.000267 375.969238,86.994858 379.415436,86.994286 
	C381.226898,87.014809 382.620575,87.030495 384.014221,87.046188 
z"/>
<path fill="#EF8503" opacity="1.000000" stroke="none" 
	d="
M369.005524,87.013718 
	C367.101532,94.504135 365.217346,101.999672 363.282593,109.482140 
	C362.622742,112.034111 361.835785,114.553215 361.055054,117.460159 
	C356.242310,116.955658 351.481415,116.078316 346.361633,115.017174 
	C348.570801,105.775795 351.138885,96.718208 354.319580,87.329803 
	C359.623352,87.003899 364.314423,87.008812 369.005524,87.013718 
z"/>
<path fill="#F46B06" opacity="1.000000" stroke="none" 
	d="
M46.993889,125.989944 
	C46.214260,127.884697 45.246269,129.733734 44.768597,131.701782 
	C44.623325,132.300308 45.830383,133.227051 46.783508,134.028931 
	C33.331413,142.692520 19.513882,151.330658 5.340969,159.901672 
	C9.448355,154.655273 13.911124,149.476013 19.023033,144.115936 
	C22.032484,142.206223 24.313641,140.354538 26.768311,138.771973 
	C33.471043,134.450623 40.246960,130.242767 46.993889,125.989944 
z"/>
<path fill="#EA400C" opacity="1.000000" stroke="none" 
	d="
M57.372704,129.070084 
	C58.455658,128.407272 59.904095,127.692833 61.720196,127.013474 
	C60.637970,127.705193 59.188080,128.361816 57.372704,129.070084 
z"/>
<path fill="#F46B06" opacity="1.000000" stroke="none" 
	d="
M48.301338,133.849762 
	C48.896179,133.129471 49.808159,132.407074 50.893505,131.899536 
	C50.250740,132.692139 49.434612,133.269897 48.301338,133.849762 
z"/>
<path fill="#F58C02" opacity="1.000000" stroke="none" 
	d="
M324.287537,110.960381 
	C324.659210,110.990204 325.298035,111.140160 325.971558,111.565353 
	C325.522430,111.587234 325.038544,111.333878 324.287537,110.960381 
z"/>
<path fill="#EA400C" opacity="1.000000" stroke="none" 
	d="
M56.326164,129.841843 
	C56.188694,129.527206 56.390472,129.309402 56.894226,129.096863 
	C56.932766,129.300827 56.755836,129.579681 56.326164,129.841843 
z"/>
<path fill="#F85612" opacity="1.000000" stroke="none" 
	d="
M647.003845,87.019089 
	C655.702942,86.344238 664.401978,85.669380 673.550537,84.995956 
	C670.002747,99.487503 665.990173,113.973396 662.014099,128.469299 
	C659.654480,137.071655 657.352600,145.689819 655.026489,154.709305 
	C644.667053,157.257065 634.305908,159.396378 623.497803,161.101959 
	C624.697266,153.958420 626.274536,147.230743 628.005554,140.542816 
	C630.934937,129.224152 633.961365,117.930634 636.947083,106.626564 
	C642.557190,105.392082 648.167297,104.157593 655.186707,102.612991 
	C650.956421,99.264046 647.486023,96.516739 644.122498,93.311661 
	C645.154175,90.908951 646.078979,88.964020 647.003845,87.019089 
z"/>
<path fill="#EA440A" opacity="1.000000" stroke="none" 
	d="
M627.997559,29.003551 
	C634.486694,29.998608 641.059875,30.629875 647.438721,32.102638 
	C652.635071,33.302414 652.900391,34.870007 650.052551,39.441776 
	C641.148315,53.735893 632.256836,68.038025 623.393188,82.357292 
	C622.792725,83.327393 622.463501,84.465393 621.956360,85.900742 
	C613.210205,86.147675 604.774475,87.409454 596.223938,90.746826 
	C595.123474,90.361641 594.562988,90.184715 594.006470,89.632446 
	C594.425415,88.018280 594.619263,86.642639 595.288574,85.561211 
	C604.752014,70.270401 614.381836,55.081333 623.710022,39.708996 
	C625.677246,36.467033 626.595764,32.588676 627.997559,29.003551 
z"/>
<path fill="#EF5211" opacity="1.000000" stroke="none" 
	d="
M636.518433,106.630455 
	C633.961365,117.930634 630.934937,129.224152 628.005554,140.542816 
	C626.274536,147.230743 624.697266,153.958420 623.068604,161.125092 
	C618.734924,163.540665 615.554932,162.565308 612.707031,158.494278 
	C609.800293,154.339142 606.121094,150.724365 602.963745,146.381424 
	C606.435303,134.326263 609.723145,122.762703 613.010986,111.199142 
	C620.703918,109.677544 628.396851,108.155952 636.518433,106.630455 
z"/>
<path fill="#B4390F" opacity="1.000000" stroke="none" 
	d="
M545.009949,125.888992 
	C535.597656,127.845512 526.185303,129.802032 516.383423,131.347992 
	C516.682739,127.713371 517.259827,124.460564 518.081055,121.270622 
	C520.676086,111.190857 523.362549,101.134636 526.479370,91.046829 
	C532.295044,90.989868 537.644897,90.955368 543.452332,90.946304 
	C547.267883,90.999138 550.625793,91.026535 553.941711,91.435226 
	C553.175659,94.365501 552.397522,96.900566 551.737427,99.465996 
	C549.472656,108.267929 547.249207,117.080490 545.009949,125.888992 
z"/>
<path fill="#BA420D" opacity="1.000000" stroke="none" 
	d="
M526.013611,91.069298 
	C523.362549,101.134636 520.676086,111.190857 518.081055,121.270622 
	C517.259827,124.460564 516.682739,127.713371 515.991699,131.338959 
	C509.651154,132.976181 503.312775,134.211838 496.517731,135.018845 
	C496.247345,132.962234 496.237213,131.282471 496.650879,129.714508 
	C500.057129,116.803101 503.542114,103.912476 507.463318,91.004349 
	C511.613983,90.973228 515.304504,90.953308 519.432983,90.954941 
	C521.918457,91.007439 523.966064,91.038368 526.013611,91.069298 
z"/>
<path fill="#C04A0C" opacity="1.000000" stroke="none" 
	d="
M507.003174,91.015533 
	C503.542114,103.912476 500.057129,116.803101 496.650879,129.714508 
	C496.237213,131.282471 496.247345,132.962234 496.093201,135.057816 
	C490.027588,136.688446 483.929779,137.851456 477.413849,138.941391 
	C481.326630,123.162453 485.657593,107.456581 490.411804,91.354416 
	C492.218994,90.936241 493.602997,90.914360 495.447571,90.921288 
	C499.606476,90.971901 503.304810,90.993721 507.003174,91.015533 
z"/>
<path fill="#CE4310" opacity="1.000000" stroke="none" 
	d="
M594.002441,90.007782 
	C594.562988,90.184715 595.123474,90.361641 595.851196,90.788452 
	C584.523376,97.633057 575.600037,106.460808 570.757996,119.128868 
	C570.214233,120.551346 567.509583,121.351685 565.654480,122.011543 
	C563.815491,122.665665 561.783447,122.777290 559.422180,122.687943 
	C559.193787,121.110085 559.286255,119.946548 559.579529,118.836052 
	C562.031311,109.553162 564.519958,100.280022 567.245728,90.990433 
	C567.493896,90.976921 567.989746,90.941833 568.444580,90.956673 
	C577.267029,90.650269 585.634766,90.329025 594.002441,90.007782 
z"/>
<path fill="#C23E10" opacity="1.000000" stroke="none" 
	d="
M566.997559,91.003952 
	C564.519958,100.280022 562.031311,109.553162 559.579529,118.836052 
	C559.286255,119.946548 559.193787,121.110085 559.011902,122.667145 
	C554.617554,124.037086 550.219482,124.988914 545.415710,125.914871 
	C547.249207,117.080490 549.472656,108.267929 551.737427,99.465996 
	C552.397522,96.900566 553.175659,94.365501 554.406250,91.412735 
	C558.941040,91.007278 562.969299,91.005615 566.997559,91.003952 
z"/>
<path fill="#E64E11" opacity="1.000000" stroke="none" 
	d="
M612.626953,111.165451 
	C609.723145,122.762703 606.435303,134.326263 602.793518,146.079208 
	C597.696899,142.929459 596.856934,138.898544 599.294495,133.524384 
	C601.613708,128.411346 603.395020,122.997688 604.841980,117.564194 
	C605.934265,113.462646 607.992493,111.231155 612.626953,111.165451 
z"/>
<path fill="#F25312" opacity="1.000000" stroke="none" 
	d="
M646.574585,87.012657 
	C646.078979,88.964020 645.154175,90.908951 643.909424,93.038361 
	C640.605469,91.899788 637.621460,90.576736 634.328979,89.072983 
	C638.062134,88.263603 642.103760,87.634918 646.574585,87.012657 
z"/>
<path fill="#FF5912" opacity="1.000000" stroke="none" 
	d="
M47.152714,125.685532 
	C40.246960,130.242767 33.471043,134.450623 26.768311,138.771973 
	C24.313641,140.354538 22.032484,142.206223 19.319508,143.964722 
	C21.839647,140.640976 24.402946,136.950104 27.634010,133.987503 
	C54.532421,109.324097 85.929779,92.548096 120.974365,83.046257 
	C140.525742,77.745193 160.542007,74.074989 180.460709,70.253326 
	C188.525940,68.705910 196.889420,68.712852 205.557831,68.421524 
	C204.918777,71.820366 203.925430,74.845093 202.734406,77.789871 
	C201.601028,80.592171 200.261185,83.310974 198.711792,86.344246 
	C184.942490,88.087433 171.473526,89.552856 157.573990,91.010620 
	C141.094803,94.332001 125.046181,97.661057 108.997559,100.990112 
	C99.196877,103.985176 89.141708,106.344826 79.662003,110.141357 
	C68.615791,114.565269 58.072861,120.245857 47.152714,125.685532 
z"/>
<path fill="#EC4C09" opacity="1.000000" stroke="none" 
	d="
M594.006470,89.632446 
	C585.634766,90.329025 577.267029,90.650269 568.452881,90.591583 
	C568.242004,89.434959 568.323425,88.563042 568.735779,87.895592 
	C577.502869,73.706261 586.388245,59.589291 595.062012,45.343430 
	C598.286011,40.048302 601.031494,34.461838 603.995117,29.008215 
	C611.683655,29.006207 619.372253,29.004204 627.529175,29.002874 
	C626.595764,32.588676 625.677246,36.467033 623.710022,39.708996 
	C614.381836,55.081333 604.752014,70.270401 595.288574,85.561211 
	C594.619263,86.642639 594.425415,88.018280 594.006470,89.632446 
z"/>
<path fill="#EE5508" opacity="1.000000" stroke="none" 
	d="
M603.550720,29.006170 
	C601.031494,34.461838 598.286011,40.048302 595.062012,45.343430 
	C586.388245,59.589291 577.502869,73.706261 568.735779,87.895592 
	C568.323425,88.563042 568.242004,89.434959 567.998108,90.576736 
	C567.989746,90.941833 567.493896,90.976921 567.245728,90.990433 
	C562.969299,91.005615 558.941040,91.007278 554.448242,91.031433 
	C550.625793,91.026535 547.267883,90.999138 543.493774,90.597160 
	C543.767578,88.719162 544.304932,87.120979 545.170898,85.726875 
	C554.762634,70.284782 564.456116,54.905510 573.967712,39.414444 
	C575.109985,37.554066 575.339844,35.133450 575.992676,32.972511 
	C585.030579,31.649717 594.068420,30.326918 603.550720,29.006170 
z"/>
<path fill="#F05D07" opacity="1.000000" stroke="none" 
	d="
M575.557617,32.980068 
	C575.339844,35.133450 575.109985,37.554066 573.967712,39.414444 
	C564.456116,54.905510 554.762634,70.284782 545.170898,85.726875 
	C544.304932,87.120979 543.767578,88.719162 543.036255,90.571716 
	C537.644897,90.955368 532.295044,90.989868 526.479370,91.046829 
	C523.966064,91.038368 521.918457,91.007439 519.473145,90.605911 
	C525.030334,80.348549 531.040527,70.494514 536.922241,60.564320 
	C541.360229,53.071568 545.633728,45.481358 549.980469,37.934540 
	C558.361145,36.285576 566.741821,34.636604 575.557617,32.980068 
z"/>
<path fill="#F26506" opacity="1.000000" stroke="none" 
	d="
M549.546631,37.950333 
	C545.633728,45.481358 541.360229,53.071568 536.922241,60.564320 
	C531.040527,70.494514 525.030334,80.348549 519.035217,90.584351 
	C515.304504,90.953308 511.613983,90.973228 507.463318,91.004349 
	C503.304810,90.993721 499.606476,90.971901 495.457275,90.558556 
	C495.441864,88.926636 495.670837,87.558937 496.344940,86.465714 
	C502.526886,76.440468 508.890778,66.526009 514.973694,56.441753 
	C517.586975,52.109486 519.663696,47.453560 521.984253,42.944687 
	C531.027100,41.285172 540.069885,39.625652 549.546631,37.950333 
z"/>
<path fill="#F46D05" opacity="1.000000" stroke="none" 
	d="
M521.552124,42.959175 
	C519.663696,47.453560 517.586975,52.109486 514.973694,56.441753 
	C508.890778,66.526009 502.526886,76.440468 496.344940,86.465714 
	C495.670837,87.558937 495.441864,88.926636 494.996704,90.529755 
	C493.602997,90.914360 492.218994,90.936241 490.419373,90.957657 
	C484.652374,90.651840 479.300995,90.346489 473.484863,90.064293 
	C472.264160,90.058472 471.508209,90.029503 470.412048,89.635452 
	C476.657684,78.417900 483.300293,67.599167 489.790009,56.689468 
	C491.437103,53.920609 492.597656,50.862343 493.981781,47.937042 
	C503.027863,46.282585 512.073975,44.628128 521.552124,42.959175 
z"/>
<path fill="#F67604" opacity="1.000000" stroke="none" 
	d="
M493.546570,47.950043 
	C492.597656,50.862343 491.437103,53.920609 489.790009,56.689468 
	C483.300293,67.599167 476.657684,78.417900 470.034149,89.624268 
	C464.310425,89.984543 458.624329,89.990921 452.470703,90.004013 
	C450.584473,89.680374 449.165802,89.350037 447.378479,88.641891 
	C451.595245,80.440094 456.284241,72.674286 460.723663,64.768311 
	C463.042389,60.638935 464.922028,56.263031 467.000000,51.998474 
	C475.703796,50.653324 484.407562,49.308178 493.546570,47.950043 
z"/>
<path fill="#F87E03" opacity="1.000000" stroke="none" 
	d="
M466.563354,51.996655 
	C464.922028,56.263031 463.042389,60.638935 460.723663,64.768311 
	C456.284241,72.674286 451.595245,80.440094 447.005920,88.636726 
	C442.314545,89.010414 437.627106,89.011452 432.474670,89.022079 
	C429.303162,89.013023 426.596649,88.994370 423.448334,88.592773 
	C424.647919,85.002296 426.183655,81.735191 427.951691,78.599068 
	C432.234528,71.002052 436.625580,63.466076 440.973053,55.905506 
	C449.357605,54.601948 457.742188,53.298389 466.563354,51.996655 
z"/>
<path fill="#FB8702" opacity="1.000000" stroke="none" 
	d="
M440.522369,55.922852 
	C436.625580,63.466076 432.234528,71.002052 427.951691,78.599068 
	C426.183655,81.735191 424.647919,85.002296 422.997681,88.578445 
	C420.278564,88.643272 417.568329,88.339485 414.437683,88.053787 
	C409.324310,88.051125 404.631287,88.030388 399.473053,88.016083 
	C398.838959,88.013634 398.670135,88.004738 398.302307,87.649918 
	C402.287994,80.771240 406.557373,74.290497 410.616882,67.680885 
	C412.308502,64.926567 413.553253,61.897770 415.001221,58.993790 
	C423.358032,57.975925 431.714874,56.958061 440.522369,55.922852 
z"/>
<path fill="#FE9600" opacity="1.000000" stroke="none" 
	d="
M369.458984,87.009705 
	C364.314423,87.008812 359.623352,87.003899 354.466125,86.998016 
	C354.197968,84.900528 353.820831,82.516167 354.699615,80.760468 
	C357.551666,75.062599 360.863922,69.595085 364.017639,63.704178 
	C373.070282,62.603882 382.104218,61.838272 391.566620,61.475525 
	C391.265472,63.832180 390.751038,65.902489 389.767517,67.718781 
	C386.263794,74.189041 382.600494,80.572891 378.997620,86.989449 
	C375.969238,86.994858 372.940857,87.000267 369.458984,87.009705 
z"/>
<path fill="#FD8F01" opacity="1.000000" stroke="none" 
	d="
M379.415436,86.994286 
	C382.600494,80.572891 386.263794,74.189041 389.767517,67.718781 
	C390.751038,65.902489 391.265472,63.832180 391.991852,61.500557 
	C399.369690,60.407814 406.750732,59.692898 414.566498,58.985886 
	C413.553253,61.897770 412.308502,64.926567 410.616882,67.680885 
	C406.557373,74.290497 402.287994,80.771240 398.048889,87.639725 
	C393.613403,87.664574 389.232330,87.353676 384.432739,87.044487 
	C382.620575,87.030495 381.226898,87.014809 379.415436,86.994286 
z"/>
<path fill="#B63B0E" opacity="1.000000" stroke="none" 
	d="
M267.995850,84.972977 
	C265.630249,85.031822 263.264679,85.090660 260.014648,85.135948 
	C256.422180,85.070366 253.714127,85.018326 251.041260,84.611900 
	C251.751480,82.962112 252.427124,81.667007 253.101471,80.371254 
	C255.410278,75.935013 257.718597,71.498520 260.027100,67.062134 
	C265.370239,67.053223 270.713379,67.044319 276.520813,67.417923 
	C276.281464,69.419418 275.687469,71.097519 274.852936,72.645981 
	C272.622375,76.784706 270.288605,80.867783 267.995850,84.972977 
z"/>
<path fill="#F85612" opacity="1.000000" stroke="none" 
	d="
M199.012115,86.066490 
	C200.261185,83.310974 201.601028,80.592171 202.734406,77.789871 
	C203.925430,74.845093 204.918777,71.820366 205.996658,68.426910 
	C211.041733,67.691284 216.088669,67.359322 221.565094,67.419662 
	C221.288589,69.759003 220.782166,71.809631 219.836197,73.632111 
	C217.673096,77.799438 215.295059,81.855194 212.630737,85.976006 
	C211.510086,86.028763 210.763031,86.061783 209.557175,86.065063 
	C205.736298,86.045715 202.374207,86.056107 199.012115,86.066490 
z"/>
<path fill="#EC8004" opacity="1.000000" stroke="none" 
	d="
M351.614075,64.141434 
	C347.897308,71.227638 343.977661,78.412773 339.412506,85.161232 
	C338.595184,86.369461 335.109253,85.772408 332.419373,86.018517 
	C331.238770,86.023537 330.494232,86.018929 329.410614,85.653809 
	C329.744324,83.991043 330.393494,82.675941 331.093994,81.388763 
	C334.057709,75.942825 337.036743,70.505219 340.010132,65.064560 
	C343.737000,64.740089 347.463806,64.415604 351.614075,64.141434 
z"/>
<path fill="#EF5311" opacity="1.000000" stroke="none" 
	d="
M213.004318,85.956268 
	C215.295059,81.855194 217.673096,77.799438 219.836197,73.632111 
	C220.782166,71.809631 221.288589,69.759003 221.991959,67.425560 
	C225.353134,67.028267 228.716980,67.017387 232.539474,67.399559 
	C232.020401,70.334175 231.152344,72.924988 230.038651,75.405502 
	C228.462357,78.916306 226.704773,82.345718 224.564301,85.870766 
	C220.404053,85.939835 216.704193,85.948051 213.004318,85.956268 
z"/>
<path fill="#BE470C" opacity="1.000000" stroke="none" 
	d="
M268.455811,85.010506 
	C270.288605,80.867783 272.622375,76.784706 274.852936,72.645981 
	C275.687469,71.097519 276.281464,69.419418 276.987488,67.433228 
	C280.685425,67.048401 284.381012,67.030762 288.533081,67.389961 
	C288.561493,68.800255 288.215820,69.877716 287.691406,70.859726 
	C285.157440,75.604614 282.575409,80.323822 280.010437,85.052139 
	C276.312225,85.050774 272.613983,85.049408 268.455811,85.010506 
z"/>
<path fill="#CF5B09" opacity="1.000000" stroke="none" 
	d="
M301.963837,85.851379 
	C298.507965,85.768188 295.052094,85.684998 291.299561,84.956390 
	C291.846497,82.569756 292.642822,80.803688 293.543213,79.092361 
	C295.669342,75.051361 297.844940,71.036407 300.000549,67.010925 
	C303.361328,67.000267 306.722076,66.989609 310.536804,67.355988 
	C310.574402,68.762299 310.232361,69.829514 309.729370,70.814514 
	C307.163757,75.838486 304.556488,80.841202 301.963837,85.851379 
z"/>
<path fill="#D86708" opacity="1.000000" stroke="none" 
	d="
M302.419281,85.898926 
	C304.556488,80.841202 307.163757,75.838486 309.729370,70.814514 
	C310.232361,69.829514 310.574402,68.762299 310.994751,67.360107 
	C314.371002,66.662926 317.743256,66.338646 321.520508,66.381149 
	C320.315918,69.625107 318.626984,72.461418 317.117188,75.390068 
	C315.326294,78.863953 313.689606,82.417328 311.986084,85.936256 
	C308.948975,85.939667 305.911835,85.943069 302.419281,85.898926 
z"/>
<path fill="#C7510B" opacity="1.000000" stroke="none" 
	d="
M299.542450,67.004845 
	C297.844940,71.036407 295.669342,75.051361 293.543213,79.092361 
	C292.642822,80.803688 291.846497,82.569756 290.992920,84.687927 
	C287.629822,85.073105 284.276703,85.081306 280.466980,85.070831 
	C282.575409,80.323822 285.157440,75.604614 287.691406,70.859726 
	C288.215820,69.877716 288.561493,68.800255 288.993561,67.398575 
	C292.359833,67.019814 295.722076,67.009285 299.542450,67.004845 
z"/>
<path fill="#E47605" opacity="1.000000" stroke="none" 
	d="
M339.581604,65.044395 
	C337.036743,70.505219 334.057709,75.942825 331.093994,81.388763 
	C330.393494,82.675941 329.744324,83.991043 329.038086,85.650803 
	C326.301636,86.006523 323.598663,86.004738 320.451904,85.624039 
	C320.430023,84.216530 320.767548,83.142998 321.287781,82.166817 
	C324.167297,76.763794 327.091248,71.384476 330.000000,65.997032 
	C333.051025,65.672768 336.102081,65.348503 339.581604,65.044395 
z"/>
<path fill="#E34C11" opacity="1.000000" stroke="none" 
	d="
M225.024673,85.809906 
	C226.704773,82.345718 228.462357,78.916306 230.038651,75.405502 
	C231.152344,72.924988 232.020401,70.334175 232.997437,67.401718 
	C236.359528,67.008652 239.722336,67.006462 243.506439,67.363541 
	C242.442871,70.448547 240.909592,73.149300 239.486252,75.906792 
	C237.938339,78.905594 236.492584,81.957108 234.592361,85.018677 
	C231.129852,85.304451 228.077255,85.557175 225.024673,85.809906 
z"/>
<path fill="#DD6E06" opacity="1.000000" stroke="none" 
	d="
M329.555969,65.991379 
	C327.091248,71.384476 324.167297,76.763794 321.287781,82.166817 
	C320.767548,83.142998 320.430023,84.216530 320.001617,85.614853 
	C317.622162,85.983650 315.249268,85.982719 312.431213,85.959030 
	C313.689606,82.417328 315.326294,78.863953 317.117188,75.390068 
	C318.626984,72.461418 320.315918,69.625107 321.965149,66.394806 
	C324.373840,66.023033 326.742920,66.004387 329.555969,65.991379 
z"/>
<path fill="#D64610" opacity="1.000000" stroke="none" 
	d="
M235.002289,84.985641 
	C236.492584,81.957108 237.938339,78.905594 239.486252,75.906792 
	C240.909592,73.149300 242.442871,70.448547 243.964630,67.365906 
	C246.704514,67.008682 249.407501,67.008362 252.519943,67.364761 
	C249.954300,73.472878 246.979187,79.224266 243.554382,85.002541 
	C240.403885,85.014832 237.703094,85.000237 235.002289,84.985641 
z"/>
<path fill="#C63F0F" opacity="1.000000" stroke="none" 
	d="
M244.004074,84.975655 
	C246.979187,79.224266 249.954300,73.472878 252.970581,67.371552 
	C255.057022,67.021179 257.102264,67.020729 259.587311,67.041199 
	C257.718597,71.498520 255.410278,75.935013 253.101471,80.371254 
	C252.427124,81.667007 251.751480,82.962112 250.604248,84.645706 
	C248.089386,85.014488 246.046738,84.995071 244.004074,84.975655 
z"/>
<path fill="#FEFEFE" opacity="1.000000" stroke="none" 
	d="
M399.004059,180.069992 
	C399.052063,168.402802 398.007385,169.777847 408.987946,169.891968 
	C421.636353,170.023422 430.250977,178.048233 431.507141,190.034637 
	C432.743988,201.836700 424.525391,210.216461 412.725128,210.974396 
	C410.403870,211.123505 408.064789,210.999481 405.733948,210.995209 
	C399.990326,210.984711 399.034302,210.025070 399.011383,204.034775 
	C398.981445,196.209869 399.004059,188.384750 399.004059,180.069992 
z"/>
<path fill="#FFFFFF" opacity="1.000000" stroke="none" 
	d="
M235.268875,196.331085 
	C237.511230,190.664902 239.522461,185.329819 241.996887,178.766083 
	C247.347046,191.886154 252.283890,203.992661 257.432739,216.619019 
	C247.425751,216.619019 237.944901,216.619019 227.840515,216.619019 
	C230.249405,209.939529 232.643585,203.300842 235.268875,196.331085 
z"/>
<path fill="#FB8C02" opacity="1.000000" stroke="none" 
	d="
M243.554382,85.002541 
	C246.046738,84.995071 248.089386,85.014488 250.569061,85.000092 
	C253.714127,85.018326 256.422180,85.070366 259.577209,85.202728 
	C259.020721,89.925911 258.017242,94.568756 256.556610,99.621750 
	C249.340210,99.671738 242.578888,99.345123 235.822510,98.937004 
	C232.551605,98.739426 229.289917,98.388878 226.024063,98.107590 
	C220.312469,97.769775 214.600891,97.431969 208.443207,96.665482 
	C208.670059,92.856133 209.343002,89.475464 210.015961,86.094803 
	C210.763031,86.061783 211.510086,86.028763 212.630737,85.976013 
	C216.704193,85.948051 220.404053,85.939835 224.564301,85.870758 
	C228.077255,85.557175 231.129852,85.304451 234.592377,85.018677 
	C237.703094,85.000237 240.403885,85.014832 243.554382,85.002541 
z"/>
<path fill="#C9470D" opacity="1.000000" stroke="none" 
	d="
M226.115936,98.488953 
	C229.289917,98.388878 232.551605,98.739426 235.822510,98.937004 
	C242.578888,99.345123 249.340210,99.671738 256.548523,100.020844 
	C262.503082,100.817696 268.008606,101.625595 273.812317,102.703049 
	C261.307129,102.024002 248.500961,101.110962 235.702393,100.101700 
	C232.524918,99.851135 229.371994,99.289146 226.115936,98.488953 
z"/>
<path fill="#FA8503" opacity="1.000000" stroke="none" 
	d="
M209.557175,86.065063 
	C209.343002,89.475464 208.670059,92.856133 207.993591,96.660675 
	C206.226044,97.389168 204.469040,97.905556 202.696854,97.964355 
	C190.188721,98.379417 177.676468,98.669838 165.168381,99.086060 
	C163.384933,99.145416 161.616928,99.669060 159.371765,99.578247 
	C158.602692,96.458549 158.303619,93.738419 158.004547,91.018288 
	C171.473526,89.552856 184.942490,88.087433 198.711792,86.344246 
	C202.374207,86.056107 205.736298,86.045715 209.557175,86.065063 
z"/>
<path fill="#F97D04" opacity="1.000000" stroke="none" 
	d="
M157.573990,91.010620 
	C158.303619,93.738419 158.602692,96.458549 158.952011,99.576523 
	C142.971771,102.665138 126.941254,105.355919 110.505386,108.069809 
	C109.733147,106.007133 109.366257,103.921364 108.998459,101.412849 
	C125.046181,97.661057 141.094803,94.332001 157.573990,91.010620 
z"/>
</svg>